<svg width="138" height="26" viewBox="0 0 138 26" fill="none" xmlns="http://www.w3.org/2000/svg">
<g clip-path="url(#clip0_8344_4856)">
<path d="M19.7358 11.6638C19.6821 10.7677 19.4564 9.87162 19.0104 9.09618L15.2166 1.99654C14.9372 1.46234 14.7169 0.864959 14.604 0.267578L14.4374 0.566268C13.4863 2.29523 13.4863 4.50094 14.4374 6.23564L17.5058 11.905C18.4569 13.634 18.4569 15.8397 17.5058 17.5744L17.3392 17.8731C17.2263 17.2757 17.006 16.6783 16.7266 16.1441L13.9377 10.9515L12.1536 7.60847C11.8742 7.07427 11.6539 6.47689 11.541 5.87951L11.3745 6.1782C10.4233 7.90716 10.4233 10.0554 11.3745 11.8476L14.4428 17.5169C15.3939 19.2459 15.3939 21.4516 14.4428 23.1863L14.2762 23.485C14.1634 22.8876 13.9431 22.2902 13.6636 21.7561L9.81074 14.6564C9.31099 13.7029 9.0853 12.6288 9.0853 11.5546C5.01209 12.6862 2.16406 15.1332 2.16406 17.9363C2.16406 20.7394 7.63442 25.0359 14.3837 25.0359C21.133 25.0359 26.6033 21.8767 26.6033 17.9363C26.6571 15.2538 23.8681 12.8068 19.7412 11.6753L19.7358 11.6638ZM31.2891 23.7722C31.3429 22.7555 31.4557 22.1007 31.7351 21.2678C33.0194 21.9226 34.6906 22.2213 35.9212 22.2213C38.0438 22.2213 39.269 21.5033 39.269 20.0156C39.269 18.5279 38.3769 17.9305 36.2544 16.9138L35.0829 16.4371C32.9066 15.4204 31.4557 14.1107 31.4557 11.5431C31.4557 8.97555 33.2989 6.9479 36.9798 6.9479C40.6607 6.9479 39.8816 7.18915 41.1659 7.66591C41.1121 8.61942 40.9402 9.39487 40.7199 10.1129C39.4947 9.63612 37.9847 9.39487 36.9261 9.39487C34.9163 9.39487 34.0243 10.2278 34.0243 11.5431C34.0243 12.8585 34.9163 13.5708 36.5338 14.2888L37.759 14.823C40.6607 16.1326 41.8913 17.5686 41.8913 19.9524C41.8913 22.3362 39.8816 24.7257 35.9749 24.7257C32.0683 24.7257 32.5681 24.427 31.2891 23.7722ZM54.2292 12.0199V24.3064H51.8863L51.7734 22.813C51.1017 23.8871 50.1559 24.6051 48.5385 24.6051C45.5239 24.6051 43.4604 22.2213 43.4604 18.1028C43.4604 13.9844 45.6367 11.3019 49.8765 11.3019C51.5531 11.3593 52.9449 11.5431 54.2292 12.0199ZM51.7143 21.5033V13.8063C51.2146 13.6857 50.5966 13.6857 49.8711 13.6857C47.2488 13.6857 46.0182 15.4146 46.0182 18.1603C46.0182 20.9059 46.9694 22.4568 49.1994 22.4568C50.258 22.3994 51.0426 22.0375 51.7089 21.5033H51.7143ZM67.1742 16.0752V24.3064H64.6647V16.5519C64.6647 14.5817 64.0522 13.6857 61.5373 13.6857C59.0224 13.6857 60.253 13.7431 59.5276 13.8637V24.3007H57.0181V12.0142C58.6355 11.5948 60.4249 11.2961 61.5964 11.2961C65.8362 11.3536 67.1796 13.0883 67.1796 16.0694L67.1742 16.0752ZM74.2083 22.3419C74.9338 22.3419 75.6592 22.2213 76.1589 21.9858C76.1052 22.7038 75.9924 23.5367 75.8795 24.2547C75.2078 24.5534 74.4286 24.674 73.7569 24.674C71.3012 24.674 69.7374 23.4793 69.7374 20.4981V7.54528C70.5166 7.24659 71.4678 7.12597 72.2469 7.12597V11.7786H76.2664C76.2127 12.6115 76.1536 13.387 76.0407 14.105H72.2469V20.1305C72.2469 21.6814 72.9724 22.3362 74.1976 22.3362L74.2083 22.3419ZM87.766 12.0199V24.3064H85.4231L85.3102 22.813C84.6385 23.8871 83.6928 24.6051 82.0753 24.6051C79.0607 24.6051 76.9972 22.2213 76.9972 18.1028C76.9972 13.9844 79.1735 11.3019 83.4133 11.3019C85.0899 11.3593 86.4279 11.5431 87.766 12.0199ZM85.2028 21.5033V13.8063C84.703 13.6857 84.085 13.6857 83.3596 13.6857C80.7373 13.6857 79.5067 15.4146 79.5067 18.1603C79.5067 20.9059 80.4578 22.4568 82.6879 22.4568C83.7465 22.3994 84.5848 22.0375 85.1974 21.5033H85.2028ZM100.716 16.0752V24.3064H98.1478V16.5519C98.1478 14.5817 97.5352 13.6857 95.0204 13.6857C92.5055 13.6857 93.7361 13.7431 93.0106 13.8637V24.3007H90.5012V12.0142C92.1186 11.5948 93.908 11.2961 95.0795 11.2961C99.3193 11.3536 100.716 13.0883 100.716 16.0694V16.0752ZM113.495 7.12597V24.3064H111.152L111.039 22.7555C110.367 23.8871 109.422 24.6051 107.745 24.6051C104.731 24.6051 102.667 22.2213 102.667 18.1028C102.667 13.9844 104.843 11.3019 109.083 11.3019C113.323 11.3019 110.367 11.3593 110.98 11.48V7.42466C111.759 7.18341 112.657 7.12597 113.49 7.12597H113.495ZM110.985 21.5033V13.9269C110.314 13.8063 109.647 13.6857 108.976 13.6857C106.466 13.6857 105.295 15.3572 105.295 18.1603C105.295 20.9634 106.246 22.4568 108.476 22.4568C109.481 22.3994 110.319 22.0375 110.985 21.5033ZM126.22 19.0564H118.127C118.46 21.2621 119.632 22.2788 121.921 22.2788C124.21 22.2788 124.71 21.9801 125.94 21.3252C125.827 22.0433 125.715 22.9968 125.548 23.7722C124.377 24.3064 123.205 24.5477 121.808 24.5477C117.568 24.5477 115.558 22.0433 115.558 17.8673C115.558 13.6914 117.122 11.3076 121.142 11.3076C125.161 11.3076 126.333 13.812 126.333 16.9138C126.333 20.0156 126.333 18.3441 126.22 19.0621V19.0564ZM118.127 16.7932H123.818C123.818 14.7655 122.813 13.5708 121.082 13.5708C119.239 13.6282 118.294 14.7024 118.127 16.7932ZM135.092 11.48C135.092 12.3128 134.979 13.2721 134.866 13.8063C134.253 13.7489 133.694 13.6857 132.969 13.6857C132.243 13.6857 131.744 13.7431 131.126 13.8063V24.3064H128.616V12.0199C129.675 11.6006 131.518 11.3019 132.915 11.3019C133.641 11.3593 134.533 11.3593 135.092 11.48Z" fill="#222222"/>
</g>
<defs>
<clipPath id="clip0_8344_4856">
<rect width="137.247" height="25.2924" fill="white"/>
</clipPath>
</defs>
</svg>
