<svg width="89" height="31" viewBox="0 0 89 31" fill="none" xmlns="http://www.w3.org/2000/svg">
<g clip-path="url(#clip0_8345_5314)">
<path d="M20.8602 9.42636C19.2916 7.85774 17.6159 8.87301 16.5673 9.92165L11.6144 14.8748L6.66103 19.8281C5.61238 20.8767 4.51479 22.4699 6.16574 24.1206C7.81669 25.7719 9.4099 24.6741 10.4583 23.6254L15.4115 18.6722L20.3647 13.7192C21.4134 12.6704 22.4286 10.9948 20.8602 9.42636Z" fill="#222222"/>
<path d="M11.3988 9.02053L13.4964 11.118L15.6315 8.98292C15.7765 8.83763 15.9237 8.7028 16.0717 8.57564C15.8481 7.44756 15.2044 6.42773 13.4954 6.42773C11.7832 6.42773 11.1402 7.45157 10.918 8.58209C11.0777 8.72037 11.2374 8.85899 11.3988 9.02053Z" fill="#222222"/>
<path d="M15.6275 24.6017L13.4938 22.4678L11.3972 24.5641C11.238 24.7234 11.0796 24.8689 10.9219 25.0056C11.1623 26.1556 11.8427 27.2089 13.4929 27.2089C15.1474 27.2089 15.8269 26.1499 16.0657 24.9963C15.919 24.87 15.772 24.7462 15.6275 24.6017Z" fill="#222222"/>
<path d="M10.5077 14.1055H6.4638C4.98094 14.1055 3.07812 14.5725 3.07812 16.7906C3.07812 18.4457 4.13745 19.1253 5.29133 19.364C5.42795 19.2064 10.5077 14.1055 10.5077 14.1055Z" fill="#222222"/>
<path d="M21.7028 14.2129C21.5747 14.3617 16.4844 19.4756 16.4844 19.4756H20.4709C21.9538 19.4756 23.8566 19.1252 23.8566 16.7904C23.8566 15.0784 22.8331 14.4352 21.7028 14.2129Z" fill="#222222"/>
<path d="M11.8315 12.7778L12.5539 12.0554L10.4576 9.95885C9.40888 8.91032 7.81589 7.81261 6.16494 9.46356C4.95432 10.6742 5.22321 11.8524 5.86535 12.809C6.06092 12.7944 11.8315 12.7778 11.8315 12.7778Z" fill="#222222"/>
<path d="M15.1579 20.8031L14.4336 21.5275L16.5689 23.6626C17.6176 24.7114 19.2932 25.7264 20.8616 24.158C22.032 22.9875 21.7634 21.7582 21.1164 20.7734C20.9081 20.7885 15.1579 20.8031 15.1579 20.8031Z" fill="#222222"/>
<path d="M65.4482 9.90527C65.0901 9.90527 64.4633 9.99483 63.7765 10.2933C62.8812 10.6814 62.4036 10.9798 62.1649 11.3678C61.2694 10.3232 60.1052 9.99483 58.7919 9.99483C54.9413 9.99483 52.1953 13.2483 52.1953 17.8748C52.1953 21.7552 54.2847 24.6206 57.2397 24.6206C58.1351 24.6206 58.9411 24.2623 59.8964 23.3671C60.6424 22.6804 61.0008 22.2329 61.0008 21.8149C61.0008 21.5163 60.7918 21.3074 60.4932 21.3074C60.0753 21.3074 59.6276 21.6655 59.0604 21.6655C57.8366 21.6655 57.0008 19.7849 57.0008 17.009C57.0008 14.2332 58.1051 12.3528 59.7767 12.3528C60.881 12.3528 61.7169 13.1884 61.7169 14.6213V23.3372C61.7169 24.2921 62.6122 24.5608 64.2539 24.5608C65.8659 24.5608 66.4926 24.2623 66.4926 23.3372V10.8606C66.4928 10.2634 66.1048 9.90527 65.4482 9.90527Z" fill="#222222"/>
<path d="M47.028 9.90527C45.8639 9.90527 44.6401 10.3232 43.5653 11.1589C42.9685 11.6365 42.4609 12.1738 42.4609 12.6216C42.4609 13.0095 42.7295 13.2184 43.1176 13.2184C43.7745 13.2184 43.9834 12.9499 44.6102 12.9499C45.237 12.9499 45.5354 13.5468 45.5354 14.5916V23.3374C45.5354 24.2923 46.431 24.561 48.0725 24.561C49.6844 24.561 50.3112 24.2625 50.3112 23.3374V13.7557C50.3113 11.4871 48.9681 9.90527 47.028 9.90527Z" fill="#222222"/>
<path d="M38.6438 9.90527C37.42 9.90527 36.3155 10.3232 35.2411 11.1589C34.6441 11.6365 34.1367 12.1738 34.1367 12.6216C34.1367 13.0095 34.4052 13.2184 34.7934 13.2184C35.4499 13.2184 35.6591 12.9499 36.2262 12.9499C36.7934 12.9499 37.0919 13.5468 37.0919 14.5916V23.3374C37.0919 24.2923 37.9872 24.561 39.6288 24.561C41.2408 24.561 41.8675 24.2625 41.8675 23.3374V13.7557C41.8675 11.4871 40.5242 9.90527 38.6438 9.90527Z" fill="#222222"/>
<path d="M32.3717 9.90527C31.9241 9.90527 31.3868 9.99483 30.7001 10.2933C29.2077 10.95 28.6406 11.3678 28.6406 12.2931V23.3373C28.6406 24.2922 29.536 24.5609 31.1777 24.5609C32.7897 24.5609 33.4164 24.2624 33.4164 23.3373V10.8606C33.4165 10.2634 33.0284 9.90527 32.3717 9.90527Z" fill="#222222"/>
<path d="M84.8782 20.5314C83.6842 20.8299 83.3262 20.9195 82.9081 20.9195C82.4008 20.9195 82.2216 20.7702 82.2216 20.2329V12.7707H84.938C85.6543 12.7707 85.9228 12.5022 85.9228 11.7858C85.9228 11.1889 85.6543 10.8902 84.938 10.8902H82.2216V7.99489C82.2216 7.09932 81.9233 6.74121 81.2963 6.74121C80.6994 6.74121 79.8635 7.27855 78.0726 8.80089C76.252 10.3531 75.207 11.3679 75.207 12.0842C75.207 12.5022 75.5057 12.7707 75.9832 12.7707H77.4458V20.8299C77.4458 23.1881 78.6098 24.561 80.6396 24.561C81.9828 24.561 82.9678 24.0535 84.132 23.1582C85.2065 22.3223 85.8929 21.6656 85.8929 21.0987C85.893 20.6211 85.5348 20.3523 84.8782 20.5314Z" fill="#222222"/>
<path d="M72.7897 3.60742C72.5509 3.60742 71.8048 3.69698 71.118 3.99546C69.6255 4.62224 69.0586 5.06991 69.0586 5.99529V23.3374C69.0586 24.2927 69.9539 24.5612 71.5956 24.5612C73.2077 24.5612 73.8342 24.2628 73.8342 23.3374V4.56261C73.8342 3.96554 73.4463 3.60742 72.7897 3.60742Z" fill="#222222"/>
<g clip-path="url(#clip1_8345_5314)">
<path fill-rule="evenodd" clip-rule="evenodd" d="M-76 12.9605V-183.439H-26V-81.5395C-7.7 -94.0395 14.4 -101.339 38.3 -101.339C101.4 -101.339 152.6 -50.1395 152.6 12.9605C152.6 76.0605 101.4 127.261 38.3 127.261C-24.8 127.261 -76 76.0605 -76 12.9605ZM38.3 77.2605C2.79999 77.2605 -26 48.4605 -26 12.9605C-26 -22.5395 2.79999 -51.3395 38.3 -51.3395C73.8 -51.3395 102.6 -22.5395 102.6 12.9605C102.6 48.4605 73.8 77.2605 38.3 77.2605Z" fill="#7145D6"/>
</g>
</g>
<defs>
<clipPath id="clip0_8345_5314">
<rect width="89" height="30.8163" fill="white"/>
</clipPath>
<clipPath id="clip1_8345_5314">
<rect width="1200" height="400" fill="white" transform="translate(-576 -187.039)"/>
</clipPath>
</defs>
</svg>
