<svg width="106" height="31" viewBox="0 0 106 31" fill="none" xmlns="http://www.w3.org/2000/svg">
<path d="M3.93795 4.01953C7.26134 4.01953 10.5847 4.01953 13.9077 4.01953C13.9081 4.24142 13.9072 4.46377 13.9086 4.68566C13.3359 4.71924 12.7605 4.77687 12.2033 4.91844C11.8925 5.00239 11.5817 5.11356 11.3221 5.30868C11.1079 5.47113 10.97 5.71208 10.8715 5.95757C10.6637 6.52296 10.6387 7.13374 10.6351 7.72999C10.6356 13.3272 10.6351 18.924 10.6356 24.5212C10.6369 24.8588 10.6632 25.2173 10.847 25.5109C10.994 25.7386 11.2677 25.8326 11.5204 25.8852C11.9392 25.9651 12.3667 25.9791 12.7914 25.9955C13.8192 26.0082 14.8483 26.0145 15.8757 25.9751C16.9865 25.9342 18.0996 25.8575 19.1918 25.6443C19.6737 25.544 20.1551 25.4187 20.6007 25.2055C21.2174 24.9055 21.7107 24.4127 22.149 23.8959C22.802 23.0905 23.3152 22.1816 23.7685 21.2518C24.0684 21.2513 24.3684 21.2504 24.6683 21.2522C24.1011 23.2688 23.5307 25.2844 22.9649 27.3014C22.9581 27.3604 22.9254 27.3872 22.8673 27.3822C16.5581 27.3835 10.2485 27.3831 3.93932 27.3826C3.94068 27.1603 3.93478 26.9384 3.94385 26.7165C4.56869 26.648 5.19625 26.5627 5.79522 26.3657C6.08563 26.2637 6.39283 26.1416 6.58931 25.8925C6.78716 25.6234 6.87564 25.2926 6.93735 24.9691C7.03718 24.4005 7.04444 23.8215 7.04172 23.2461C7.04217 18.1644 7.04172 13.0831 7.04172 8.00134C7.03854 7.33838 7.02493 6.66046 6.82119 6.02337C6.71138 5.66625 6.49221 5.32638 6.14462 5.16302C5.46306 4.82134 4.68622 4.75146 3.9375 4.68657C3.94022 4.46422 3.93977 4.24188 3.93795 4.01953Z" fill="#222222"/>
<path d="M20.8286 4.01901C23.9637 4.01901 27.0987 4.01901 30.2334 4.01901C30.2365 4.22457 30.2365 4.43012 30.2338 4.63568C29.6888 4.65111 29.1384 4.65564 28.6025 4.76546C28.205 4.85031 27.8048 5.09217 27.6659 5.49284C27.5003 5.95342 27.6487 6.4453 27.793 6.89045C28.0816 7.6918 28.4355 8.46729 28.7763 9.24731C30.6967 13.5218 32.6088 17.7995 34.5333 22.0721C35.9939 18.1956 37.4528 14.3191 38.913 10.4425C39.2769 9.45514 39.6763 8.47954 39.9916 7.4749C40.1277 6.99935 40.2707 6.50611 40.2053 6.00651C40.1668 5.6621 39.9998 5.3304 39.7293 5.11077C39.5338 4.95513 39.3005 4.84895 39.0578 4.79268C38.5881 4.68015 38.1039 4.6502 37.623 4.63522C37.6234 4.42967 37.623 4.22457 37.6234 4.01901C40.0279 4.01855 42.4324 4.01992 44.8365 4.01855C44.8392 4.22366 44.8379 4.42876 44.8383 4.63432C44.159 4.73641 43.4275 4.91974 42.9574 5.45927C42.3585 6.12494 41.9905 6.95806 41.6538 7.77802C40.2362 11.3719 38.83 14.9702 37.4169 18.5659C36.2113 21.6442 34.9965 24.7194 33.7968 27.8C33.6162 27.8032 33.436 27.8023 33.2559 27.8014C31.7884 24.5311 30.3209 21.2608 28.8539 17.99C27.342 14.629 25.8427 11.262 24.3235 7.90462C23.941 7.10508 23.5557 6.29556 23.0162 5.58814C22.5034 4.92201 21.6299 4.69104 20.8281 4.63477C20.8281 4.42921 20.8281 4.22411 20.8286 4.01901Z" fill="#222222"/>
<path d="M46.2493 4.01901C48.5712 4.01992 50.8936 4.02037 53.2155 4.01855C55.9222 9.8785 58.6231 15.7412 61.3257 21.6029C63.9653 15.7425 66.5998 9.87941 69.2403 4.01901C71.5804 4.02082 73.92 4.01765 76.2601 4.02037C76.2615 4.24226 76.261 4.4637 76.2605 4.68514C75.6588 4.73415 75.0513 4.79903 74.475 4.98689C74.1632 5.09262 73.8438 5.23601 73.64 5.50555C73.41 5.81547 73.3133 6.19936 73.2484 6.57372C73.1468 7.21035 73.1563 7.85697 73.1586 8.4995C73.1586 13.2491 73.1586 17.9991 73.1581 22.7492C73.16 23.4579 73.1382 24.1722 73.2543 24.8741C73.3151 25.219 73.4023 25.5707 73.6065 25.8611C73.7961 26.1311 74.1115 26.2695 74.4119 26.3793C75.0072 26.5826 75.6366 26.6588 76.2601 26.7196C76.2615 26.9406 76.2605 27.1611 76.261 27.3821C72.9617 27.3835 69.6628 27.3826 66.3634 27.3826C66.3625 27.1616 66.363 26.9401 66.363 26.7192C66.9502 26.6688 67.54 26.6003 68.1091 26.4401C68.4408 26.3348 68.792 26.2146 69.0329 25.95C69.3129 25.6124 69.3932 25.165 69.4654 24.7448C69.5897 23.889 69.5611 23.0214 69.5652 22.1593C69.5634 17.2055 69.5688 12.2517 69.5625 7.29793C66.5445 13.9901 63.5337 20.6859 60.5239 27.3821C60.3574 27.383 60.1904 27.3889 60.0248 27.3717C58.3907 23.796 56.7336 20.2307 55.0919 16.6582C53.7746 13.8118 52.4709 10.9594 51.1477 8.11562C51.155 12.0707 51.1486 16.0257 51.1509 19.9807C51.1613 21.1306 51.1187 22.2827 51.1985 23.4307C51.2462 23.9807 51.3251 24.532 51.4985 25.0579C51.6233 25.4141 51.7907 25.7731 52.0811 26.0249C52.308 26.2105 52.5848 26.3226 52.8611 26.4133C53.3775 26.5789 53.9166 26.6511 54.452 26.7246C54.4466 26.9438 54.4498 27.1629 54.4489 27.3826C51.6913 27.383 48.9338 27.383 46.1767 27.3826C46.1758 27.1611 46.1762 26.9401 46.1758 26.7192C46.7825 26.6475 47.3923 26.5594 47.9709 26.3557C48.3443 26.22 48.7228 26.0381 48.9783 25.7227C49.2519 25.3638 49.3521 24.9109 49.4379 24.4771C49.6289 23.3518 49.5913 22.206 49.5967 21.0693C49.5967 17.0013 49.5967 12.9328 49.5967 8.86479C49.5872 8.18278 49.624 7.49713 49.5391 6.81875C49.481 6.37587 49.3925 5.91802 49.1389 5.5414C48.941 5.24826 48.6034 5.0958 48.279 4.9878C47.6228 4.78088 46.9304 4.72915 46.2479 4.6865C46.2516 4.4637 46.2502 4.24135 46.2493 4.01901Z" fill="#222222"/>
<path d="M80.1094 4.02159C83.3742 4.01433 86.6391 4.02432 89.9035 4.0166C89.9139 4.2394 89.908 4.46265 89.9085 4.68545C89.3476 4.73174 88.7836 4.79209 88.2422 4.95136C87.9432 5.04847 87.6356 5.161 87.4028 5.37972C87.1523 5.62067 87.0293 5.95782 86.9513 6.28861C86.8333 6.82043 86.807 7.36767 86.8065 7.91128C86.8065 10.1838 86.8065 12.4562 86.807 14.7287C90.3763 14.7278 93.9456 14.7287 97.515 14.7278C97.5136 12.3646 97.52 10.0009 97.5118 7.63766C97.4946 7.02236 97.4592 6.38935 97.2196 5.81397C97.103 5.52538 96.8833 5.28034 96.5993 5.15011C95.9204 4.8175 95.1527 4.74989 94.4107 4.68636C94.4139 4.46356 94.4126 4.24122 94.4121 4.01887C97.6783 4.02023 100.945 4.01842 104.212 4.01978C104.211 4.24122 104.21 4.46311 104.213 4.68455C103.45 4.75579 102.656 4.82158 101.967 5.18596C101.608 5.37291 101.398 5.74591 101.297 6.1248C101.063 6.97153 101.117 7.8591 101.109 8.72807C101.109 13.6437 101.109 18.5598 101.109 23.4755C101.11 24.0146 101.13 24.5573 101.245 25.0855C101.304 25.3604 101.4 25.6318 101.559 25.865C101.754 26.1278 102.063 26.2698 102.362 26.3796C102.958 26.5829 103.587 26.6569 104.211 26.719C104.211 26.9396 104.211 27.1605 104.212 27.3815C100.945 27.3842 97.6792 27.382 94.413 27.3824C94.4121 27.161 94.4126 26.94 94.4126 26.719C94.9825 26.6569 95.5547 26.5833 96.1078 26.4268C96.4187 26.3261 96.7468 26.219 96.9841 25.983C97.235 25.7121 97.318 25.3378 97.3861 24.9861C97.5386 24.1285 97.5104 23.2536 97.5154 22.3869C97.515 20.3522 97.5168 18.3175 97.5145 16.2828C93.9452 16.2815 90.3759 16.2837 86.8065 16.2815C86.8065 18.6642 86.8065 21.0465 86.8065 23.4292C86.8065 24.0241 86.8279 24.6253 86.9703 25.2053C87.0579 25.5302 87.1886 25.8673 87.4622 26.0815C87.6977 26.2612 87.9795 26.3696 88.2618 26.4536C88.7986 26.6056 89.3553 26.6659 89.9089 26.7208C89.9089 26.9409 89.9094 27.1614 89.9089 27.3824C86.6432 27.3829 83.377 27.3829 80.1112 27.3824C80.1098 27.1614 80.1103 26.9405 80.1107 26.7199C80.7138 26.6487 81.3205 26.5657 81.9018 26.3828C82.2162 26.2761 82.5516 26.1473 82.7603 25.8755C83.0108 25.5097 83.0757 25.0587 83.136 24.6294C83.2508 23.6597 83.2023 22.681 83.2131 21.7067C83.2131 17.1241 83.2131 12.5411 83.2136 7.95802C83.2131 7.39989 83.1909 6.83722 83.0688 6.29043C82.9894 5.96054 82.8701 5.62158 82.6205 5.38017C82.3778 5.15283 82.0565 5.03712 81.7443 4.94047C81.2125 4.78801 80.6593 4.73038 80.1098 4.68545C80.1107 4.46402 80.1112 4.24303 80.1094 4.02159Z" fill="#222222"/>
</svg>
