<svg width="69" height="28" viewBox="0 0 69 28" fill="none" xmlns="http://www.w3.org/2000/svg">
<g clip-path="url(#clip0_8345_5131)">
<path d="M6.26453 4.23912H3.19922V2.41699H11.2211V4.23912H8.15578V12.6273H6.25922V4.23912H6.26453Z" fill="#222222"/>
<path d="M17.622 10.4388C17.4627 11.0231 16.5436 12.7709 14.1955 12.7709C12.0067 12.7709 10.4023 11.1665 10.4023 8.9035C10.4023 6.64045 12.0067 5.03613 14.1955 5.03613C16.2355 5.03613 17.8452 6.64045 17.8452 8.75475C17.8452 8.97256 17.8186 9.14786 17.8027 9.28067L17.7761 9.48254H12.2245C12.3839 10.5184 13.1595 11.2356 14.1955 11.2356C15.0561 11.2356 15.582 10.7416 15.7255 10.4334H17.622V10.4388ZM16.0177 8.25008C15.8583 7.29918 15.2314 6.57139 14.1955 6.57139C13.0852 6.57139 12.4423 7.29918 12.2245 8.25008H16.0177Z" fill="#222222"/>
<path d="M18.9336 2.41699H20.7558V12.6273H18.9336V2.41699Z" fill="#222222"/>
<path d="M29.0713 10.4388C28.9119 11.0231 27.9928 12.7709 25.6447 12.7709C23.4559 12.7709 21.8516 11.1665 21.8516 8.9035C21.8516 6.64045 23.4559 5.03613 25.6447 5.03613C27.6847 5.03613 29.2944 6.64045 29.2944 8.75475C29.2944 8.97256 29.2678 9.14786 29.2519 9.28067L29.2253 9.48254H23.6791C23.8384 10.5184 24.6141 11.2356 25.65 11.2356C26.5106 11.2356 27.0366 10.7416 27.18 10.4334H29.0713V10.4388ZM27.4669 8.25008C27.3075 7.29918 26.6806 6.57139 25.6447 6.57139C24.5344 6.57139 23.8916 7.29918 23.6737 8.25008H27.4669Z" fill="#222222"/>
<path d="M30.9722 6.93765H29.7344V5.18458H30.9722V4.09556C30.9722 2.98529 31.6894 2.27344 32.7944 2.27344H34.3988V3.87776H33.3097C33.0175 3.87776 32.7997 4.09556 32.7997 4.38774V5.1899H34.4041V6.94296H32.7997V12.6324H30.9722V6.93765Z" fill="#222222"/>
<path d="M42.262 8.90838C42.262 11.1714 40.6577 12.7757 38.4689 12.7757C36.2802 12.7757 34.6758 11.1714 34.6758 8.90838C34.6758 6.64533 36.2802 5.04102 38.4689 5.04102C40.6577 5.04102 42.262 6.64533 42.262 8.90838ZM40.4398 8.90838C40.4398 7.59624 39.5633 6.71971 38.4689 6.71971C37.3745 6.71971 36.498 7.59624 36.498 8.90838C36.498 10.2205 37.3745 11.0971 38.4689 11.0971C39.5633 11.0971 40.4398 10.2205 40.4398 8.90838Z" fill="#222222"/>
<path d="M43.3555 5.19031H45.0342L45.1777 5.91809H45.252C45.3848 5.75872 45.5602 5.60998 45.7461 5.48248C46.0808 5.26468 46.5908 5.04688 47.292 5.04688C48.9708 5.04688 50.2086 6.28464 50.2086 8.18114V12.6329H48.3864V8.32988C48.3864 7.37898 47.7277 6.72557 46.782 6.72557C45.8364 6.72557 45.1777 7.38429 45.1777 8.32988V12.6329H43.3555V5.19031Z" fill="#222222"/>
<path d="M61.8175 9.8544C61.5837 11.0231 60.6647 12.7709 58.3166 12.7709C56.1278 12.7709 54.5234 11.1665 54.5234 8.9035C54.5234 6.64045 56.1278 5.03613 58.3166 5.03613C60.6647 5.03613 61.5837 6.7892 61.8175 7.88353H59.9953C59.8359 7.45855 59.4109 6.71482 58.3166 6.71482C57.2222 6.71482 56.3456 7.59135 56.3456 8.9035C56.3456 10.2156 57.2222 11.0922 58.3166 11.0922C59.4109 11.0922 59.8359 10.3644 59.9953 9.8544H61.8175Z" fill="#222222"/>
<path d="M67.325 11.8992H67.2506C67.1178 12.0586 66.9425 12.2073 66.7406 12.3348C66.39 12.5526 65.88 12.7704 65.1362 12.7704C63.4416 12.7704 62.4375 11.7345 62.4375 10.5074C62.4375 9.0465 63.4575 8.02654 65.5028 8.02654H67.1816V7.8831C67.1816 7.06501 66.6875 6.49659 65.8694 6.49659C65.0512 6.49659 64.6316 7.02251 64.5572 7.44749H62.735C62.8944 6.22035 63.8878 5.04102 65.8694 5.04102C67.7659 5.04102 69.0037 6.29472 69.0037 7.88841V12.627H67.4737L67.325 11.8992ZM67.1816 9.41836H65.6516C64.7006 9.41836 64.265 9.78491 64.265 10.364C64.265 10.9483 64.69 11.3149 65.4338 11.3149C66.5441 11.3149 67.1869 10.6721 67.1869 9.63616V9.41836H67.1816Z" fill="#222222"/>
<path d="M51.6055 5.18945H53.4277V12.632H51.6055V5.18945Z" fill="#222222"/>
<path d="M52.5277 4.11676C53.1233 4.11676 53.6061 3.63394 53.6061 3.03836C53.6061 2.44278 53.1233 1.95996 52.5277 1.95996C51.932 1.95996 51.4492 2.44278 51.4492 3.03836C51.4492 3.63394 51.932 4.11676 52.5277 4.11676Z" fill="#222222"/>
<path d="M39.1209 2.05078H41.0175L39.2644 4.16508H37.7344L39.1209 2.05078Z" fill="#222222"/>
<path d="M6.26063 18.5448H3.19531V16.7227H11.2225V18.5448H8.15719V26.9329H6.26063V18.5448Z" fill="#222222"/>
<path d="M17.6313 24.745C17.4719 25.3293 16.5528 27.0824 14.1994 27.0824C12.0106 27.0824 10.4062 25.4781 10.4062 23.215C10.4062 20.952 12.0106 19.3477 14.1994 19.3477C16.2447 19.3477 17.8491 20.952 17.8491 23.0663C17.8491 23.2841 17.8225 23.4594 17.8066 23.5922L17.7747 23.7941H12.2337C12.3931 24.83 13.1688 25.5471 14.2047 25.5471C15.0653 25.5471 15.5912 25.0531 15.7347 24.745H17.6313ZM16.0269 22.5563C15.8675 21.6107 15.2406 20.8776 14.2047 20.8776C13.0944 20.8776 12.4516 21.6054 12.2337 22.5563H16.0269Z" fill="#222222"/>
<path d="M25.9073 24.1601C25.6736 25.3288 24.7545 27.0765 22.4064 27.0765C20.2177 27.0765 18.6133 25.4722 18.6133 23.2092C18.6133 20.9461 20.2177 19.3418 22.4064 19.3418C24.7545 19.3418 25.6736 21.0949 25.9073 22.1892H24.0852C23.9258 21.7642 23.5008 21.0205 22.4064 21.0205C21.312 21.0205 20.4355 21.897 20.4355 23.2092C20.4355 24.5213 21.312 25.3978 22.4064 25.3978C23.5008 25.3978 23.9258 24.67 24.0852 24.1601H25.9073Z" fill="#222222"/>
<path d="M26.9258 16.7178H28.748V20.2186H28.8223C28.9552 20.0592 29.1305 19.9105 29.3164 19.783C29.6511 19.5652 30.1611 19.3474 30.8623 19.3474C32.5411 19.3474 33.7789 20.5851 33.7789 22.4869V26.9333H31.9567V22.6304C31.9567 21.6795 31.298 21.0261 30.3523 21.0261C29.4014 21.0261 28.748 21.6848 28.748 22.6304V26.9333H26.9258V16.7178Z" fill="#222222"/>
</g>
<defs>
<clipPath id="clip0_8345_5131">
<rect width="102" height="27.7037" fill="white" transform="translate(-33)"/>
</clipPath>
</defs>
</svg>
