<svg width="112" height="24" viewBox="0 0 112 24" fill="none" xmlns="http://www.w3.org/2000/svg">
<g clip-path="url(#clip0_8345_5063)">
<mask id="mask0_8345_5063" style="mask-type:luminance" maskUnits="userSpaceOnUse" x="0" y="-100" width="112" height="124">
<path d="M112.002 -99.9443H0V23.96H112.002V-99.9443Z" fill="white"/>
</mask>
<g mask="url(#mask0_8345_5063)">
<path d="M14.4315 8.99101C14.2482 8.40689 13.713 7.09393 13.5673 6.12456C13.2455 3.97758 14.368 2.56361 15.3988 2.23979C16.5556 1.91701 17.0075 2.49801 17.4553 3.84846C18.0342 5.90486 18.0987 8.59952 17.904 12.4572C17.651 17.7268 15.0146 24.0907 8.46105 23.9584C2.80402 23.8345 0.300885 20.1705 0.0405762 14.5802C-0.0822897 11.9449 0.106174 9.31066 1.19739 5.5852C1.77632 3.59024 2.29277 2.88014 4.0889 2.49801C5.50082 2.23979 5.37379 3.71623 5.05413 5.45714C4.35025 9.31067 4.0233 11.1713 4.28361 15.5434C4.53559 20.1705 6.66076 21.9708 8.97438 21.9708C12.4448 22.0374 13.9859 19.146 14.6314 14.9644C15.1406 11.6242 14.7564 10.0176 14.4315 8.99101ZM88.4259 13.5547C89.7774 13.5547 90.1648 15.1529 89.842 16.1212C89.5192 17.0833 88.3645 18.1808 86.5663 18.5004C86.1789 17.5342 85.9853 13.5547 88.4259 13.5547ZM63.305 15.7329C63.305 14.6448 62.723 13.7442 62.0222 13.7442C61.4371 13.7442 60.0928 14.3845 60.0928 16.4419C60.0928 18.0537 60.6655 18.818 60.9279 19.146C62.7865 18.565 63.305 17.0188 63.305 15.7329ZM43.3154 2.62608C43.2248 1.59528 42.4168 0.893503 41.3235 0.893503C40.1042 0.893503 38.9557 2.17316 39.0776 3.78079C39.1557 4.84074 39.7804 5.71223 41.008 5.71223C42.4168 5.71327 43.4445 4.10669 43.3154 2.62608ZM53.7663 6.40048C53.6549 4.60334 53.2196 3.79224 52.2544 3.85888C50.9747 3.93593 50.3833 7.96229 50.6447 12.1948C50.8113 14.9561 51.2225 15.382 51.6057 15.3549C52.3138 15.3122 54.012 10.379 53.7663 6.40048ZM96.3955 13.1652C95.599 16.469 93.1844 21.3294 89.5817 21.3294C88.7477 21.3294 87.2691 21.0056 87.2691 20.1705C87.2691 19.2699 92.9282 19.146 92.9282 14.8374C92.9282 13.2329 91.4507 10.9808 89.2641 10.9808C86.3726 10.9808 83.5519 14.1325 83.5519 18.5015C83.5519 22.4185 85.9853 23.7044 88.4269 23.7044C92.67 23.7044 95.2408 20.2319 96.5892 17.3426C97.2348 19.2709 97.6138 23.7044 99.2267 23.7044C99.867 23.7044 100.32 23.3827 101.092 21.6501C103.015 17.3415 104.881 12.3937 107.452 12.3937C108.413 12.3937 107.838 14.1325 110.15 14.1325C111.24 14.1325 112.009 13.2329 112.009 12.2C112.009 10.7205 110.662 9.56785 108.607 9.56785C102.565 9.56785 101.284 18.6295 100.319 18.6295C98.7112 18.6295 99.2256 11.3671 98.0667 11.3671C97.038 11.366 96.533 12.5915 96.3955 13.1652ZM44.9876 20.8754C45.9508 20.8754 47.6074 20.5631 48.911 18.4754C48.1655 16.8199 47.6334 13.4745 47.5595 12.2563C47.1763 6.02668 49.5763 0.166733 52.2034 0.00430364C54.1297 -0.112312 55.6707 1.71086 55.8477 4.66478C56.3215 12.427 53.7361 15.6673 52.4418 18.4629C52.6605 19.5468 54.4993 21.3919 56.234 21.3919C56.8744 21.3919 57.6491 21.0701 57.8438 20.8098C57.7146 20.3631 57.5835 19.7853 57.5835 18.9471C57.5835 14.449 60.476 10.6559 62.9833 10.6559C64.9752 10.6559 66.132 13.2902 66.132 15.029C66.132 17.0823 64.3952 18.7565 61.8265 20.3631C62.2784 20.8098 63.1093 21.1347 63.8194 21.1347C67.4856 21.1347 69.4036 16.6991 70.8238 12.6488C71.08 11.8762 71.5329 10.7861 72.4304 10.7861C73.9725 10.7861 74.6181 20.94 77.1816 20.94C78.278 20.94 79.1756 18.6889 79.1756 16.9584C79.1756 15.6714 78.7257 15.5423 78.7257 13.6786C78.7257 11.6242 79.819 9.89062 81.3007 9.89062C82.1993 9.89062 82.5242 10.7861 82.5242 11.8762C82.5242 15.99 79.5639 23.6388 75.2001 23.6388C71.9171 23.6388 72.1732 17.9829 71.0175 17.9829C69.7263 17.9829 67.9271 23.7023 61.5714 23.7023C60.5385 23.7023 59.4483 23.189 58.5508 22.1582C57.0108 23.189 55.7217 23.6388 54.2432 23.6388C51.8681 23.6388 50.8373 21.1961 49.8762 21.1961C48.7173 21.1961 47.4356 23.7023 43.5757 23.7023C40.4916 23.7023 39.9772 19.5937 38.887 19.5937C37.9207 19.5937 36.4432 23.7023 34.8376 23.7023C32.1346 23.7023 31.5619 16.571 29.1796 16.571C27.3168 16.571 21.4286 23.8137 19.8303 23.6482C19.1879 23.5815 18.9171 23.1015 18.9848 22.4581C19.0754 21.5689 19.8407 19.1886 20.151 18.0631C20.6706 16.1087 21.1475 13.967 21.414 13.2839C21.6785 12.5947 22.3918 12.1032 22.9644 12.1563C23.2529 12.1834 23.3393 12.7217 23.4288 13.1663C23.7537 14.7552 24.2066 16.3753 24.7179 16.3753C25.6206 16.3753 28.6017 10.6549 30.3364 10.6549C32.4605 10.6549 32.7146 19.6541 35.605 19.6541C36.5713 19.6541 37.2804 18.4994 37.9207 17.0812C37.9863 14.7 38.6288 11.3015 40.5561 11.3015C41.9066 11.3015 42.5501 14.3189 41.5828 16.9573C41.5807 20.1039 43.6351 20.8754 44.9876 20.8754Z" fill="#222222"/>
</g>
</g>
<defs>
<clipPath id="clip0_8345_5063">
<rect width="112" height="23.9605" fill="white"/>
</clipPath>
</defs>
</svg>
